<svg width="18" height="18" viewBox="0 0 18 18" fill="none" xmlns="http://www.w3.org/2000/svg">
<path fill-rule="evenodd" clip-rule="evenodd" d="M0.875 9C0.875 4.5142 4.5142 0.875 9 0.875C13.4858 0.875 17.125 4.5142 17.125 9C17.125 13.4858 13.4858 17.125 9 17.125C4.5142 17.125 0.875 13.4858 0.875 9ZM9 2.125C5.20455 2.125 2.125 5.20455 2.125 9C2.125 12.7954 5.20455 15.875 9 15.875C12.7954 15.875 15.875 12.7954 15.875 9C15.875 5.20455 12.7954 2.125 9 2.125Z" fill="#B2BCC6"/>
<path fill-rule="evenodd" clip-rule="evenodd" d="M9 5.25C9.34518 5.25 9.625 5.52982 9.625 5.875V12.125C9.625 12.4702 9.34518 12.75 9 12.75C8.65482 12.75 8.375 12.4702 8.375 12.125V5.875C8.375 5.52982 8.65482 5.25 9 5.25Z" fill="#B2BCC6"/>
<path fill-rule="evenodd" clip-rule="evenodd" d="M5.25 9C5.25 8.65482 5.52982 8.375 5.875 8.375H12.125C12.4702 8.375 12.75 8.65482 12.75 9C12.75 9.34518 12.4702 9.625 12.125 9.625H5.875C5.52982 9.625 5.25 9.34518 5.25 9Z" fill="#B2BCC6"/>
</svg>
