<svg width="20" height="18" viewBox="0 0 20 18" fill="none" xmlns="http://www.w3.org/2000/svg">
<path fill-rule="evenodd" clip-rule="evenodd" d="M11.248 0.247559C8.81275 0.247559 7.00471 2.15928 7.18716 4.66789C7.35468 6.96886 9.11741 8.99756 11.248 8.99756C13.3792 8.99756 15.1383 6.96782 15.3088 4.66873C15.4915 2.20251 13.6872 0.247559 11.248 0.247559ZM11.25 1.33154C9.50635 1.33154 8.21178 2.7881 8.34241 4.69942C8.46236 6.45254 9.72448 7.99821 11.25 7.99821C12.776 7.99821 14.0355 6.45174 14.1576 4.70005C14.2884 2.82103 12.9965 1.33154 11.25 1.33154Z" fill="#202F3D"/>
<path fill-rule="evenodd" clip-rule="evenodd" d="M3.14947 16.1761C3.86126 12.232 7.67469 10.2488 11.2503 10.2488C14.8263 10.2488 18.6399 12.2323 19.3517 16.1768C19.4158 16.5317 19.3536 16.9116 19.1431 17.2189C18.9231 17.5403 18.5603 17.7488 18.1253 17.7488H4.37574C3.94101 17.7488 3.57804 17.5405 3.35774 17.2192C3.14705 16.912 3.08456 16.5318 3.14947 16.1761ZM11.2503 11.4988C8.02936 11.4988 4.94462 13.2653 4.37949 16.3988L4.37934 16.3996L4.37918 16.4004C4.37309 16.4337 4.37426 16.4614 4.37809 16.4815C4.37943 16.4885 4.38102 16.4942 4.38255 16.4988H18.118C18.1196 16.4942 18.1212 16.4883 18.1226 16.4811C18.1265 16.4607 18.1277 16.4325 18.1216 16.3988C17.5561 13.2653 14.4713 11.4988 11.2503 11.4988Z" fill="#202F3D"/>
<path fill-rule="evenodd" clip-rule="evenodd" d="M3.4375 5.24878C3.78268 5.24878 4.0625 5.5286 4.0625 5.87378V10.2488C4.0625 10.594 3.78268 10.8738 3.4375 10.8738C3.09232 10.8738 2.8125 10.594 2.8125 10.2488V5.87378C2.8125 5.5286 3.09232 5.24878 3.4375 5.24878Z" fill="#202F3D"/>
<path fill-rule="evenodd" clip-rule="evenodd" d="M0.625 8.06128C0.625 7.7161 0.904822 7.43628 1.25 7.43628H5.625C5.97018 7.43628 6.25 7.7161 6.25 8.06128C6.25 8.40646 5.97018 8.68628 5.625 8.68628H1.25C0.904822 8.68628 0.625 8.40646 0.625 8.06128Z" fill="#202F3D"/>
</svg>
