<svg width="20" height="20" viewBox="0 0 20 20" fill="none" xmlns="http://www.w3.org/2000/svg">
<path fill-rule="evenodd" clip-rule="evenodd" d="M14.2235 4.26434C14.3894 4.26425 14.5485 4.33011 14.6658 4.4474L15.5494 5.331C15.6667 5.44829 15.7325 5.60741 15.7324 5.77329C15.7323 5.93917 15.6663 6.09822 15.5489 6.21538L4.69888 17.0408C4.65282 17.0867 4.59987 17.1252 4.54193 17.1548L2.78451 18.0533C2.54316 18.1766 2.24978 18.1304 2.0581 17.9387C1.86641 17.7471 1.82013 17.4537 1.9435 17.2123L2.84193 15.4545C2.87155 15.3966 2.91005 15.3436 2.95602 15.2975L13.7814 4.4479C13.8986 4.33047 14.0576 4.26444 14.2235 4.26434Z" fill="#79828B"/>
<path fill-rule="evenodd" clip-rule="evenodd" d="M15.9906 2.24083C16.225 2.00658 16.5428 1.875 16.8742 1.875C17.2056 1.875 17.5234 2.00658 17.7578 2.24083L17.316 2.68289L17.7581 2.24112C17.9923 2.47551 18.1239 2.79333 18.1239 3.12471C18.1239 3.45609 17.9923 3.77391 17.7581 4.0083L16.8745 4.89234C16.7572 5.00961 16.5982 5.07549 16.4324 5.07549C16.2666 5.07549 16.1076 5.00961 15.9904 4.89234L15.1068 4.00835C14.8628 3.76426 14.8628 3.36861 15.1069 3.12457L15.9905 2.24097L16.4324 2.68291L15.9906 2.24083Z" fill="#79828B"/>
</svg>
