<svg width="32" height="31" viewBox="0 0 32 31" fill="none" xmlns="http://www.w3.org/2000/svg">
<g filter="url(#filter0_dd_3903_43078)">
<path fill-rule="evenodd" clip-rule="evenodd" d="M14.9347 9.45028C15.2784 9.38725 15.6331 9.42968 15.9522 9.572L15.9543 9.57294C16.1521 9.66192 16.3319 9.78663 16.4845 9.94079L17.3405 10.7852C17.3428 10.7874 17.345 10.7897 17.3473 10.7919C17.4714 10.9175 17.5775 11.0598 17.6625 11.2146L17.0051 11.5755L17.6722 11.2328C17.8423 11.564 17.9037 11.9403 17.8476 12.3083C17.7915 12.6763 17.6209 13.0172 17.3599 13.2827C17.3569 13.2857 17.3539 13.2887 17.3509 13.2917C17.2411 13.3996 17.1004 13.5396 16.9173 13.722C16.851 13.7879 16.7792 13.8594 16.7013 13.9369C16.4094 14.2273 16.0357 14.5982 15.5567 15.0694C13.7169 16.8875 10.5896 20.3673 9.2265 21.9695L9.22468 21.9716C9.0895 22.1293 8.92316 22.2574 8.73611 22.3477C8.54906 22.438 8.34536 22.4887 8.13779 22.4965C7.93022 22.5043 7.72329 22.4691 7.52999 22.393C7.33669 22.317 7.1612 22.2018 7.01456 22.0547L7.01249 22.0527L5.18519 20.2052C5.18502 20.205 5.18485 20.2049 5.18468 20.2047C5.03865 20.0574 4.92476 19.8814 4.85021 19.6878C4.77558 19.494 4.742 19.2868 4.75161 19.0793C4.76121 18.8719 4.81379 18.6687 4.90602 18.4826C4.99806 18.2969 5.12759 18.1323 5.28642 17.9991C6.85684 16.6764 10.3357 13.5695 12.1998 11.7253L12.2001 11.725C12.988 10.9466 13.4953 10.4477 13.8191 10.1293C13.8997 10.0501 13.9688 9.98211 14.0282 9.92373C14.2757 9.67822 14.5917 9.51319 14.9347 9.45028ZM16.3422 11.9269C16.3257 11.8986 16.3058 11.8724 16.2829 11.8489L15.4275 11.0051C15.4247 11.0024 15.4219 10.9996 15.4191 10.9967C15.3964 10.9736 15.3696 10.9549 15.3401 10.9415C15.2978 10.9228 15.2508 10.9173 15.2053 10.9257C15.1595 10.9341 15.1172 10.9562 15.0841 10.9891L15.0815 10.9916C15.0216 11.0506 14.9518 11.1192 14.8706 11.1991C14.5468 11.5175 14.041 12.0148 13.2548 12.7917C11.3543 14.6719 7.84309 17.807 6.25183 19.1472L6.25 19.1487L8.07689 20.9957C8.07694 20.9958 8.077 20.9959 8.07705 20.9959C8.07718 20.996 8.07732 20.9961 8.07746 20.9963C8.07792 20.9966 8.07843 20.9969 8.07897 20.9971C8.07976 20.9974 8.08059 20.9976 8.08143 20.9975C8.08227 20.9975 8.08309 20.9973 8.08385 20.9969C8.08428 20.9967 8.08468 20.9965 8.08504 20.9962C8.08527 20.996 8.08548 20.9958 8.08567 20.9956C9.46458 19.3749 12.6217 15.8609 14.5031 14.0018L14.5043 14.0006C14.9809 13.5317 15.3527 13.1627 15.6434 12.8735C15.7192 12.7981 15.7898 12.7278 15.8554 12.6625C16.037 12.4817 16.1807 12.3386 16.2933 12.2279C16.3314 12.1878 16.3564 12.137 16.3647 12.0823C16.3728 12.0293 16.3649 11.9753 16.3422 11.9269Z" fill="white"/>
<path fill-rule="evenodd" clip-rule="evenodd" d="M16.2695 2.91623C16.8196 2.95382 17.3611 3.07817 17.8737 3.28538L17.8748 3.28584C20.0136 4.14701 21.2798 5.34218 21.5799 5.63615C21.9322 5.98419 22.2603 6.35571 22.5622 6.74814C22.5618 6.78639 22.5583 6.84363 22.5508 6.94708C22.5504 6.95165 22.5501 6.95639 22.5497 6.9613C22.5412 7.07864 22.5256 7.29156 22.5554 7.50791C22.59 7.75917 22.6922 8.07662 22.9678 8.34308C22.9696 8.34482 22.9714 8.34656 22.9733 8.34828C23.3389 8.69597 23.8111 8.79768 24.1036 8.83056C24.3238 8.85739 24.5473 8.83442 24.7575 8.76332C24.7642 8.76106 24.7709 8.75876 24.7775 8.75642L25.6412 9.60042L23.8365 11.3619L23.0182 10.5628C23.0388 10.5244 23.0579 10.4851 23.0756 10.4452C23.1677 10.2365 23.2176 10.0117 23.2224 9.78363C23.2271 9.55559 23.1867 9.32887 23.1034 9.11654C23.02 8.90422 22.8955 8.7105 22.7369 8.54658C22.7352 8.54489 22.7336 8.5432 22.732 8.54153C22.6264 8.43411 22.506 8.34244 22.3743 8.26934C21.893 7.99747 21.3395 7.88079 20.7893 7.93531C20.7865 7.93559 20.7837 7.93588 20.7809 7.93618C20.4714 7.96972 19.956 8.09167 19.3551 8.45654C18.8477 8.76465 18.0683 9.35647 16.9824 10.4064L16.6861 10.1137C17.4109 9.37183 17.8913 8.82057 18.1867 8.34589C18.3704 8.05072 18.497 7.76401 18.5667 7.4592C18.6357 7.15764 18.6382 6.88399 18.6265 6.64151L18.6265 6.64028C18.5632 5.36176 18.1426 4.23979 17.0872 3.40454L17.0842 3.40218C16.8581 3.22478 16.5778 3.05951 16.2695 2.91623ZM13.3946 4.2883C13.6805 4.22866 13.9734 4.21069 14.2644 4.23495L14.2659 4.23507C14.8713 4.28458 15.6153 4.58129 15.9508 4.84372C16.4873 5.26897 16.7505 5.83372 16.7949 6.73055C16.8027 6.8921 16.7955 6.97886 16.7791 7.05029C16.7635 7.11859 16.7291 7.2175 16.6299 7.37698C16.4102 7.73 15.9566 8.25393 14.9936 9.21722C14.9818 9.22905 14.9703 9.24121 14.9591 9.25367C14.7352 9.50356 14.6171 9.83058 14.6295 10.1659C14.6419 10.4985 14.7818 10.8135 15.0201 11.0456L16.0612 12.0741L16.0637 12.0765C16.3057 12.3139 16.6303 12.4482 16.9692 12.4514C17.3082 12.4546 17.6353 12.3264 17.8817 12.0937C17.8881 12.0877 17.8944 12.0815 17.9006 12.0753C19.1298 10.8462 19.9144 10.2623 20.3069 10.024C20.6561 9.81194 20.9079 9.76752 20.9747 9.75968C21.0831 9.74955 21.1917 9.76033 21.2949 9.7908C21.1918 9.8964 21.1093 10.0204 21.0518 10.1566C20.9903 10.3022 20.9586 10.4587 20.9586 10.6167C20.9586 10.7748 20.9903 10.9313 21.0518 11.0769C21.1132 11.2221 21.203 11.3536 21.3159 11.4636L21.3168 11.4644L22.995 13.1032C23.1055 13.2131 23.2366 13.3001 23.3808 13.3592C23.5252 13.4185 23.6799 13.4487 23.836 13.4482C24.1445 13.4486 24.4415 13.3297 24.6645 13.1161L24.6681 13.1126L24.6707 13.1101L27.3967 10.4494C27.405 10.4413 27.4132 10.433 27.4212 10.4245C27.6323 10.2022 27.75 9.9073 27.75 9.60071C27.75 9.29411 27.6323 8.99922 27.4212 8.77687L26.7563 9.40816L27.3971 8.75241L25.7137 7.10739L25.7123 7.10601C25.5994 6.99539 25.4656 6.90843 25.3186 6.85024C25.1758 6.79372 25.0235 6.76546 24.87 6.76697C24.7044 6.76731 24.5422 6.80206 24.3931 6.86739C24.3969 6.77183 24.3976 6.66109 24.3881 6.54988C24.3687 6.32091 24.3037 6.0233 24.0997 5.74074C24.0959 5.73558 24.0922 5.73047 24.0883 5.72539C23.7156 5.23137 23.3075 4.76508 22.8672 4.3302L22.8646 4.32767C22.4749 3.94567 21.0095 2.57128 18.5603 1.58501C17.717 1.24424 16.8158 1.06948 15.9063 1.07032C14.3649 1.07045 13.1525 1.74167 12.6403 2.2056C12.6348 2.21063 12.6293 2.21574 12.6238 2.22091C12.37 2.46238 12.1377 2.72544 11.9295 3.00713C11.6886 3.33297 11.6902 3.77829 11.9333 4.10243C12.1765 4.42656 12.6036 4.55262 12.9838 4.41249C13.1182 4.36297 13.2554 4.3215 13.3946 4.2883ZM24.1074 7.16425L24.0649 7.1393L24.0986 7.17335L24.1074 7.16425ZM24.0945 7.16921L24.1033 7.15998L24.0455 7.09974C24.042 7.10288 24.0386 7.1061 24.0353 7.10939L24.0945 7.16921Z" fill="white"/>
</g>
<defs>
<filter id="filter0_dd_3903_43078" x="0" y="0" width="32" height="32" filterUnits="userSpaceOnUse" color-interpolation-filters="sRGB">
<feFlood flood-opacity="0" result="BackgroundImageFix"/>
<feColorMatrix in="SourceAlpha" type="matrix" values="0 0 0 0 0 0 0 0 0 0 0 0 0 0 0 0 0 0 127 0" result="hardAlpha"/>
<feOffset dy="4"/>
<feGaussianBlur stdDeviation="2"/>
<feComposite in2="hardAlpha" operator="out"/>
<feColorMatrix type="matrix" values="0 0 0 0 0 0 0 0 0 0 0 0 0 0 0 0 0 0 0.25 0"/>
<feBlend mode="normal" in2="BackgroundImageFix" result="effect1_dropShadow_3903_43078"/>
<feColorMatrix in="SourceAlpha" type="matrix" values="0 0 0 0 0 0 0 0 0 0 0 0 0 0 0 0 0 0 127 0" result="hardAlpha"/>
<feOffset dy="4"/>
<feGaussianBlur stdDeviation="2"/>
<feComposite in2="hardAlpha" operator="out"/>
<feColorMatrix type="matrix" values="0 0 0 0 0 0 0 0 0 0 0 0 0 0 0 0 0 0 0.25 0"/>
<feBlend mode="normal" in2="effect1_dropShadow_3903_43078" result="effect2_dropShadow_3903_43078"/>
<feBlend mode="normal" in="SourceGraphic" in2="effect2_dropShadow_3903_43078" result="shape"/>
</filter>
</defs>
</svg>
