<svg width="24" height="24" viewBox="0 0 24 24" fill="none" xmlns="http://www.w3.org/2000/svg">
<path fill-rule="evenodd" clip-rule="evenodd" d="M13.6908 2.57795C13.6909 2.57798 13.6909 2.578 13.691 2.57803L20.6905 5.76942C20.6907 5.76951 20.6909 5.76959 20.6911 5.76968C21.1858 5.99443 21.7484 6.43202 21.7497 7.13254C21.751 7.83381 21.1891 8.27289 20.6957 8.49818L20.6954 8.49832L13.7579 11.6624L13.7578 11.6624C13.2364 11.9001 12.5989 12.0007 12.0034 12.0007C11.408 12.0007 10.7705 11.9001 10.249 11.6624L10.2489 11.6624L3.3123 8.49871C3.31211 8.49863 3.31192 8.49854 3.31173 8.49845C2.81777 8.27379 2.25391 7.83581 2.25391 7.13414C2.25391 6.4324 2.81788 5.99442 3.31187 5.76977C3.31201 5.7697 3.31216 5.76963 3.3123 5.76957L10.3074 2.57803C10.3076 2.57797 10.3077 2.57791 10.3078 2.57785C10.3079 2.57784 10.3079 2.57783 10.3079 2.57782C10.8127 2.34722 11.4266 2.25 11.9992 2.25C12.5719 2.25 13.186 2.34726 13.6908 2.57795ZM11.9992 3.75C11.5715 3.75 11.1851 3.82616 10.931 3.94228L3.93515 7.13414L10.8713 10.2976C10.8713 10.2976 10.8713 10.2976 10.8714 10.2976C11.1417 10.4208 11.5515 10.5007 12.0034 10.5007C12.4554 10.5007 12.8652 10.4208 13.1355 10.2976M13.1356 10.2976L20.0698 7.135L13.0674 3.94228C12.8134 3.82616 12.427 3.75 11.9992 3.75" fill="white"/>
<path fill-rule="evenodd" clip-rule="evenodd" d="M15.9612 14.0734C16.1408 13.7001 16.589 13.5432 16.9623 13.7228L20.7026 15.5228C21.195 15.7486 21.753 16.1858 21.753 16.8839C21.753 17.5855 21.1894 18.0237 20.6952 18.2485C20.695 18.2485 20.6948 18.2486 20.6946 18.2487L13.7579 21.4124L13.7575 21.4126C13.2362 21.65 12.5988 21.7504 12.0034 21.7504C11.4081 21.7504 10.7707 21.65 10.2494 21.4126L10.2489 21.4124L3.3123 18.2487C3.31211 18.2486 3.31192 18.2486 3.31173 18.2485C2.81752 18.0237 2.25391 17.5855 2.25391 16.8839C2.25391 16.182 2.81796 15.7438 3.3123 15.5191L3.31561 15.5176L7.19217 13.7781C7.57008 13.6085 8.0139 13.7774 8.18348 14.1553C8.35306 14.5332 8.18418 14.977 7.80627 15.1466L3.93466 16.8839L10.8709 20.0474C10.871 20.0475 10.8711 20.0475 10.8712 20.0476C10.8713 20.0476 10.8713 20.0476 10.8714 20.0476C11.1418 20.1706 11.5516 20.2504 12.0034 20.2504C12.4553 20.2504 12.8651 20.1706 13.1355 20.0476C13.1356 20.0476 13.1356 20.0476 13.1357 20.0476C13.1358 20.0475 13.1358 20.0475 13.1359 20.0474L20.0722 16.8839C20.0678 16.8819 20.0634 16.8798 20.059 16.8777L16.3118 15.0744C15.9386 14.8948 15.7816 14.4466 15.9612 14.0734Z" fill="white"/>
<path fill-rule="evenodd" clip-rule="evenodd" d="M15.8156 9.27928C15.9851 8.90132 16.4289 8.7323 16.8068 8.90176L20.6918 10.6436L20.6954 10.6452C21.1891 10.8696 21.7548 11.3083 21.7532 12.0118C21.7515 12.7139 21.1856 13.1509 20.6904 13.375C20.69 13.3751 20.6896 13.3753 20.6892 13.3755L13.754 16.5381L13.7539 16.5381C13.2325 16.7758 12.595 16.8764 11.9995 16.8764C11.4041 16.8764 10.7666 16.7758 10.2451 16.5381L10.2451 16.5381L3.3084 13.3748C3.30827 13.3748 3.30814 13.3747 3.30802 13.3747C2.81376 13.1499 2.25 12.7117 2.25 12.01C2.25 11.3081 2.81405 10.8699 3.3084 10.6452L3.31166 10.6437L7.19291 8.90187C7.57081 8.73227 8.01465 8.90114 8.18425 9.27904C8.35385 9.65694 8.18499 10.1008 7.80709 10.2704L3.93076 12.01L10.8674 15.1732C10.8674 15.1732 10.8674 15.1732 10.8674 15.1733C11.1377 15.2965 11.5476 15.3764 11.9995 15.3764C12.4515 15.3764 12.8614 15.2965 13.1316 15.1733C13.1317 15.1732 13.1317 15.1732 13.1317 15.1732L20.0691 12.0097L20.0706 12.009L16.1932 10.2705C15.8152 10.101 15.6462 9.65725 15.8156 9.27928Z" fill="white"/>
</svg>
