<svg width="73" height="20" viewBox="0 0 73 20" fill="none" xmlns="http://www.w3.org/2000/svg">
<path d="M0 2.89809C0 2.30361 0.201699 1.80467 0.605096 1.40127C1.02972 0.976645 1.53928 0.764331 2.13376 0.764331H20.6688C21.2633 0.764331 21.7728 0.96603 22.1975 1.36943C22.6009 1.79406 22.8025 2.30361 22.8025 2.89809C22.8025 3.49257 22.5902 4.00212 22.1656 4.42675C21.7622 4.83015 21.2633 5.03185 20.6688 5.03185H13.5669V17.9299C13.4395 19.2038 12.7389 19.8938 11.465 20C10.8705 20 10.3503 19.8089 9.90446 19.4268C9.47983 19.0234 9.26752 18.5244 9.26752 17.9299V5.03185H2.13376C1.53928 5.03185 1.04034 4.81953 0.636943 4.3949C0.212314 3.99151 0 3.49257 0 2.89809Z" fill="white"/>
<path d="M32.1975 0.764331H45.6369C46.2314 0.785563 46.7197 1.00849 47.1019 1.43312C47.5053 1.85775 47.707 2.3673 47.707 2.96178C47.6009 4.23567 46.9108 4.92569 45.6369 5.03185H33.2803C32.4735 5.07431 31.8047 5.38217 31.2739 5.95541C30.7431 6.52866 30.3503 7.18684 30.0955 7.92994C29.862 8.6518 29.7452 9.3949 29.7452 10.1592C29.7452 10.9236 29.862 11.6773 30.0955 12.4204C30.3503 13.1423 30.7431 13.7898 31.2739 14.3631C31.8047 14.9363 32.4735 15.2442 33.2803 15.2866H42.9618C43.344 15.2654 43.5457 15.0531 43.5669 14.6497V12.8025C43.5457 12.3779 43.344 12.1656 42.9618 12.1656H34.8089C34.2144 12.1656 33.7049 11.9639 33.2803 11.5605C32.8769 11.1359 32.6752 10.6263 32.6752 10.0318C32.6752 9.43737 32.8769 8.92781 33.2803 8.50318C33.7049 8.09979 34.2144 7.89809 34.8089 7.89809H45.7006C46.2951 7.89809 46.8047 8.09979 47.2293 8.50318C47.6115 8.90658 47.8132 9.39491 47.8344 9.96815V10.0318V17.4841C47.8132 18.0573 47.6115 18.535 47.2293 18.9172C46.8259 19.3206 46.3376 19.5329 45.7643 19.5541H32.1975C30.7113 19.4692 29.4798 18.9066 28.5032 17.8662C27.5478 16.8047 26.8578 15.6051 26.4331 14.2675C26.0297 12.9299 25.828 11.5605 25.828 10.1592C25.828 8.75796 26.0403 7.38854 26.465 6.05096C26.8896 4.71338 27.5796 3.52442 28.535 2.48408C29.4904 1.42251 30.7113 0.849257 32.1975 0.764331Z" fill="white"/>
<path d="M58.949 14.6178C58.949 14.0234 59.1507 13.5244 59.5541 13.121C59.9788 12.6964 60.4883 12.4841 61.0828 12.4841H65.9554L65.1274 10.1274C64.7877 9.2569 64.448 8.43949 64.1083 7.67516C63.7898 6.8896 63.4183 6.17834 62.9936 5.5414C62.6115 4.90446 62.1762 4.56476 61.6879 4.52229C61.1783 4.56476 60.7219 4.90446 60.3185 5.5414C59.9151 6.17834 59.5435 6.8896 59.2038 7.67516C58.8854 8.43949 58.5563 9.2569 58.2166 10.1274L55.1911 18.4076C54.9788 18.8535 54.7028 19.2251 54.3631 19.5223C54.0446 19.7983 53.5563 19.9363 52.8981 19.9363C52.2824 19.9363 51.7728 19.724 51.3694 19.2994C50.9873 18.8747 50.8174 18.3652 50.8599 17.7707C50.8811 17.4947 50.9448 17.2399 51.051 17.0064L54.5541 7.96178C55.5308 5.58386 56.5074 3.66242 57.4841 2.19745C58.4395 0.753715 59.8408 0.0212314 61.6879 0C63.5138 0.0212314 64.9045 0.753715 65.8599 2.19745C66.8365 3.61996 67.8132 5.5414 68.7898 7.96178L72.293 17.0064C72.3992 17.2399 72.4629 17.4947 72.4841 17.7707C72.5266 18.3652 72.3461 18.8747 71.9427 19.2994C71.5605 19.724 71.0616 19.9363 70.4459 19.9363C69.7452 19.9363 69.2251 19.7983 68.8854 19.5223C68.5669 19.2251 68.3015 18.8535 68.0892 18.4076L67.4841 16.7516H61.0828C60.4883 16.7516 59.9894 16.5393 59.586 16.1146C59.1614 15.7113 58.949 15.2123 58.949 14.6178Z" fill="white"/>
</svg>
