<svg width="24" height="24" viewBox="0 0 24 24" fill="none" xmlns="http://www.w3.org/2000/svg">
<path fill-rule="evenodd" clip-rule="evenodd" d="M9.22343 3.77601C9.55888 2.64942 10.5427 1.5 11.9999 1.5C13.4575 1.5 14.4404 2.64947 14.7784 3.77394C14.7801 3.77603 14.7823 3.77868 14.7853 3.78172C14.7922 3.78895 14.8 3.79559 14.8075 3.80075C14.8131 3.80467 14.8165 3.80636 14.8169 3.80656C15.6652 4.15582 16.6636 4.71371 17.4446 5.73514C18.2318 6.76478 18.7438 8.19413 18.7438 10.1883C18.7438 12.1765 18.9536 13.2668 19.2625 14.0153C19.5334 14.6716 19.8895 15.103 20.3963 15.7168C20.4703 15.8065 20.5476 15.9 20.6282 15.9987L20.6284 15.999C21.5625 17.1431 20.6805 18.75 19.2417 18.75H4.7629C3.32674 18.75 2.42986 17.1513 3.37164 15.9987C3.45235 15.9 3.52964 15.8063 3.60371 15.7166C4.11044 15.1029 4.46665 14.6714 4.73773 14.0151C5.04692 13.2666 5.25719 12.1763 5.25837 10.1883M9.22343 3.77601C9.22214 3.77755 9.22052 3.77936 9.21854 3.78141C9.21215 3.78803 9.20461 3.79442 9.19708 3.79961C9.19009 3.80443 9.18589 3.8063 9.1859 3.80631L9.18544 3.8065C8.3368 4.15597 7.338 4.71281 6.55702 5.73399C5.76987 6.76324 5.25844 8.19238 5.25837 10.1878M11.9999 3C11.4225 3 10.871 3.48152 10.6576 4.21574L10.6571 4.21761C10.5195 4.68648 10.1385 5.03643 9.75661 5.1935C9.75655 5.19352 9.7565 5.19355 9.75644 5.19357C9.03998 5.48863 8.30753 5.91428 7.74851 6.64523C7.19568 7.36809 6.75837 8.46069 6.75837 10.1883V10.1887C6.75717 12.2622 6.54136 13.5776 6.12412 14.5878C5.76114 15.4666 5.25444 16.0772 4.7517 16.6832C4.67864 16.7712 4.60566 16.8592 4.53322 16.9478L4.53318 16.9479C4.50333 16.9844 4.49497 17.0144 4.49293 17.0369C4.49062 17.0625 4.49543 17.093 4.51148 17.1245C4.53936 17.1791 4.60875 17.25 4.7629 17.25H19.2417C19.3902 17.25 19.4585 17.1814 19.4869 17.1254C19.5174 17.0652 19.5136 17.0055 19.4666 16.9478C19.3942 16.8592 19.3213 16.7713 19.2483 16.6833C18.7455 16.0773 18.2387 15.4665 17.876 14.5876C17.459 13.5773 17.2438 12.2617 17.2438 10.1883C17.2438 8.4629 16.8062 7.3699 16.2529 6.64619C15.6934 5.91434 14.9606 5.48786 14.2457 5.19353C13.8595 5.03471 13.4826 4.67986 13.3458 4.2188L13.3452 4.2169C13.129 3.48116 12.5774 3 11.9999 3Z" fill="white"/>
<path fill-rule="evenodd" clip-rule="evenodd" d="M9 17.25C9.41421 17.25 9.75 17.5858 9.75 18V18.75C9.75 19.3467 9.98705 19.919 10.409 20.341C10.831 20.7629 11.4033 21 12 21C12.5967 21 13.169 20.7629 13.591 20.341C14.0129 19.919 14.25 19.3467 14.25 18.75V18C14.25 17.5858 14.5858 17.25 15 17.25C15.4142 17.25 15.75 17.5858 15.75 18V18.75C15.75 19.7446 15.3549 20.6984 14.6516 21.4016C13.9484 22.1049 12.9946 22.5 12 22.5C11.0054 22.5 10.0516 22.1049 9.34835 21.4016C8.64509 20.6984 8.25 19.7446 8.25 18.75V18C8.25 17.5858 8.58579 17.25 9 17.25Z" fill="white"/>
</svg>
