<svg width="24" height="24" viewBox="0 0 24 24" fill="none" xmlns="http://www.w3.org/2000/svg">
<path fill-rule="evenodd" clip-rule="evenodd" d="M8.25049 18.7487C8.6647 18.7487 9.00049 19.0844 9.00049 19.4987V22.4987C9.00049 22.9129 8.6647 23.2487 8.25049 23.2487C7.83628 23.2487 7.50049 22.9129 7.50049 22.4987V19.4987C7.50049 19.0844 7.83628 18.7487 8.25049 18.7487Z" fill="#B2BCC6"/>
<path fill-rule="evenodd" clip-rule="evenodd" d="M3.75049 2.24866C3.55158 2.24866 3.36081 2.32768 3.22016 2.46833C3.07951 2.60898 3.00049 2.79974 3.00049 2.99866V21.7487H13.5005V2.99866C13.5005 2.79975 13.4215 2.60898 13.2808 2.46833C13.1402 2.32767 12.9494 2.24866 12.7505 2.24866H3.75049ZM3.75049 0.748657H12.7505C13.3472 0.748657 13.9195 0.98571 14.3415 1.40767C14.7634 1.82962 15.0005 2.40192 15.0005 2.99866V22.3112C15.0005 22.5598 14.9017 22.7983 14.7259 22.9741C14.5501 23.1499 14.3116 23.2487 14.063 23.2487H2.25049C1.83627 23.2487 1.50049 22.9129 1.50049 22.4987V2.99866C1.50049 2.40192 1.73754 1.82962 2.1595 1.40767C2.58145 0.98571 3.15375 0.748657 3.75049 0.748657Z" fill="#B2BCC6"/>
<path fill-rule="evenodd" clip-rule="evenodd" d="M13.9398 8.688C14.2211 8.40669 14.6027 8.24866 15.0005 8.24866H20.2505C20.8472 8.24866 21.4195 8.48571 21.8415 8.90767C22.2634 9.32962 22.5005 9.90192 22.5005 10.4987V22.4987C22.5005 22.9129 22.1647 23.2487 21.7505 23.2487H14.2505C13.8363 23.2487 13.5005 22.9129 13.5005 22.4987V9.74866C13.5005 9.35083 13.6585 8.9693 13.9398 8.688ZM20.2505 9.74866H15.0005V21.7487H21.0005V10.4987C21.0005 10.2997 20.9215 10.109 20.7808 9.96833C20.6402 9.82768 20.4494 9.74866 20.2505 9.74866Z" fill="#B2BCC6"/>
<path d="M4.59799 20.2426C4.44266 20.2629 4.28487 20.234 4.14676 20.1601C4.00865 20.0862 3.89716 19.9709 3.82793 19.8303C3.75871 19.6898 3.73522 19.5311 3.76077 19.3766C3.78632 19.222 3.85963 19.0793 3.9704 18.9686C4.08117 18.8578 4.22384 18.7845 4.3784 18.7589C4.53295 18.7334 4.69163 18.7569 4.83216 18.8261C4.97268 18.8953 5.08801 19.0068 5.16194 19.1449C5.23588 19.283 5.26471 19.4408 5.24439 19.5962C5.22296 19.7601 5.14796 19.9123 5.03106 20.0292C4.91416 20.1461 4.76191 20.2211 4.59799 20.2426Z" fill="#B2BCC6"/>
<path d="M4.59799 16.4926C4.44266 16.5129 4.28487 16.484 4.14676 16.4101C4.00865 16.3362 3.89716 16.2209 3.82793 16.0803C3.75871 15.9398 3.73522 15.7811 3.76077 15.6266C3.78632 15.472 3.85963 15.3293 3.9704 15.2186C4.08117 15.1078 4.22384 15.0345 4.3784 15.0089C4.53295 14.9834 4.69163 15.0069 4.83216 15.0761C4.97268 15.1453 5.08801 15.2568 5.16194 15.3949C5.23588 15.533 5.26471 15.6908 5.24439 15.8462C5.22296 16.0101 5.14796 16.1623 5.03106 16.2792C4.91416 16.3961 4.76191 16.4711 4.59799 16.4926Z" fill="#B2BCC6"/>
<path d="M4.59799 12.7426C4.44266 12.7629 4.28487 12.734 4.14676 12.6601C4.00865 12.5862 3.89716 12.4709 3.82793 12.3303C3.75871 12.1898 3.73522 12.0311 3.76077 11.8766C3.78632 11.722 3.85963 11.5793 3.9704 11.4686C4.08117 11.3578 4.22384 11.2845 4.3784 11.2589C4.53295 11.2334 4.69163 11.2569 4.83216 11.3261C4.97268 11.3953 5.08801 11.5068 5.16194 11.6449C5.23588 11.783 5.26471 11.9408 5.24439 12.0962C5.22296 12.2601 5.14796 12.4123 5.03106 12.5292C4.91416 12.6461 4.76191 12.7211 4.59799 12.7426Z" fill="#B2BCC6"/>
<path d="M4.59799 8.99256C4.44266 9.01288 4.28487 8.98405 4.14676 8.91011C4.00865 8.83618 3.89716 8.72085 3.82793 8.58033C3.75871 8.4398 3.73522 8.28112 3.76077 8.12657C3.78632 7.97201 3.85963 7.82934 3.9704 7.71857C4.08117 7.6078 4.22384 7.53449 4.3784 7.50894C4.53295 7.48339 4.69163 7.50688 4.83216 7.5761C4.97268 7.64533 5.08801 7.75682 5.16194 7.89493C5.23588 8.03304 5.26471 8.19083 5.24439 8.34616C5.22296 8.51008 5.14796 8.66233 5.03106 8.77923C4.91416 8.89613 4.76191 8.97113 4.59799 8.99256Z" fill="#B2BCC6"/>
<path d="M4.59799 5.24256C4.44266 5.26288 4.28487 5.23405 4.14676 5.16011C4.00865 5.08618 3.89716 4.97085 3.82793 4.83033C3.75871 4.6898 3.73522 4.53112 3.76077 4.37657C3.78632 4.22201 3.85963 4.07934 3.9704 3.96857C4.08117 3.8578 4.22384 3.78449 4.3784 3.75894C4.53295 3.73339 4.69163 3.75688 4.83216 3.8261C4.97268 3.89533 5.08801 4.00682 5.16194 4.14493C5.23588 4.28303 5.26471 4.44083 5.24439 4.59616C5.22296 4.76008 5.14796 4.91233 5.03106 5.02923C4.91416 5.14613 4.76191 5.22113 4.59799 5.24256Z" fill="#B2BCC6"/>
<path d="M8.34799 16.4926C8.19266 16.5129 8.03487 16.484 7.89676 16.4101C7.75865 16.3362 7.64716 16.2209 7.57793 16.0803C7.50871 15.9398 7.48522 15.7811 7.51077 15.6266C7.53632 15.472 7.60963 15.3293 7.7204 15.2186C7.83117 15.1078 7.97384 15.0345 8.1284 15.0089C8.28295 14.9834 8.44163 15.0069 8.58216 15.0761C8.72269 15.1453 8.83801 15.2568 8.91194 15.3949C8.98588 15.533 9.01471 15.6908 8.9944 15.8462C8.97296 16.0101 8.89796 16.1623 8.78106 16.2792C8.66416 16.3961 8.51191 16.4711 8.34799 16.4926Z" fill="#B2BCC6"/>
<path d="M8.34799 12.7426C8.19266 12.7629 8.03487 12.734 7.89676 12.6601C7.75865 12.5862 7.64716 12.4709 7.57793 12.3303C7.50871 12.1898 7.48522 12.0311 7.51077 11.8766C7.53632 11.722 7.60963 11.5793 7.7204 11.4686C7.83117 11.3578 7.97384 11.2845 8.1284 11.2589C8.28295 11.2334 8.44163 11.2569 8.58216 11.3261C8.72269 11.3953 8.83801 11.5068 8.91194 11.6449C8.98588 11.783 9.01471 11.9408 8.9944 12.0962C8.97296 12.2601 8.89796 12.4123 8.78106 12.5292C8.66416 12.6461 8.51191 12.7211 8.34799 12.7426Z" fill="#B2BCC6"/>
<path d="M8.34799 8.99256C8.19266 9.01288 8.03487 8.98405 7.89676 8.91011C7.75865 8.83618 7.64716 8.72085 7.57793 8.58033C7.50871 8.4398 7.48522 8.28112 7.51077 8.12657C7.53632 7.97201 7.60963 7.82934 7.7204 7.71857C7.83117 7.6078 7.97384 7.53449 8.1284 7.50894C8.28295 7.48339 8.44163 7.50688 8.58216 7.5761C8.72269 7.64533 8.83801 7.75682 8.91194 7.89493C8.98588 8.03304 9.01471 8.19083 8.9944 8.34616C8.97296 8.51008 8.89796 8.66233 8.78106 8.77923C8.66416 8.89613 8.51191 8.97113 8.34799 8.99256Z" fill="#B2BCC6"/>
<path d="M8.34799 5.24256C8.19266 5.26288 8.03487 5.23405 7.89676 5.16011C7.75865 5.08618 7.64716 4.97085 7.57793 4.83033C7.50871 4.6898 7.48522 4.53112 7.51077 4.37657C7.53632 4.22201 7.60963 4.07934 7.7204 3.96857C7.83117 3.8578 7.97384 3.78449 8.1284 3.75894C8.28295 3.73339 8.44163 3.75688 8.58216 3.8261C8.72269 3.89533 8.83801 4.00682 8.91194 4.14493C8.98588 4.28303 9.01471 4.44083 8.9944 4.59616C8.97296 4.76008 8.89796 4.91233 8.78106 5.02923C8.66416 5.14613 8.51191 5.22113 8.34799 5.24256Z" fill="#B2BCC6"/>
<path d="M12.098 20.2426C11.9427 20.2629 11.7849 20.234 11.6468 20.1601C11.5086 20.0862 11.3972 19.9709 11.3279 19.8303C11.2587 19.6898 11.2352 19.5311 11.2608 19.3766C11.2863 19.222 11.3596 19.0793 11.4704 18.9686C11.5812 18.8578 11.7238 18.7845 11.8784 18.7589C12.033 18.7334 12.1916 18.7569 12.3322 18.8261C12.4727 18.8953 12.588 19.0068 12.6619 19.1449C12.7359 19.283 12.7647 19.4408 12.7444 19.5962C12.723 19.7601 12.648 19.9123 12.5311 20.0292C12.4142 20.1461 12.2619 20.2211 12.098 20.2426Z" fill="#B2BCC6"/>
<path d="M12.098 16.4926C11.9427 16.5129 11.7849 16.484 11.6468 16.4101C11.5086 16.3362 11.3972 16.2209 11.3279 16.0803C11.2587 15.9398 11.2352 15.7811 11.2608 15.6266C11.2863 15.472 11.3596 15.3293 11.4704 15.2186C11.5812 15.1078 11.7238 15.0345 11.8784 15.0089C12.033 14.9834 12.1916 15.0069 12.3322 15.0761C12.4727 15.1453 12.588 15.2568 12.6619 15.3949C12.7359 15.533 12.7647 15.6908 12.7444 15.8462C12.723 16.0101 12.648 16.1623 12.5311 16.2792C12.4142 16.3961 12.2619 16.4711 12.098 16.4926Z" fill="#B2BCC6"/>
<path d="M12.098 12.7426C11.9427 12.7629 11.7849 12.734 11.6468 12.6601C11.5086 12.5862 11.3972 12.4709 11.3279 12.3303C11.2587 12.1898 11.2352 12.0311 11.2608 11.8766C11.2863 11.722 11.3596 11.5793 11.4704 11.4686C11.5812 11.3578 11.7238 11.2845 11.8784 11.2589C12.033 11.2334 12.1916 11.2569 12.3322 11.3261C12.4727 11.3953 12.588 11.5068 12.6619 11.6449C12.7359 11.783 12.7647 11.9408 12.7444 12.0962C12.723 12.2601 12.648 12.4123 12.5311 12.5292C12.4142 12.6461 12.2619 12.7211 12.098 12.7426Z" fill="#B2BCC6"/>
<path d="M12.5322 8.78263C12.8242 8.49066 12.823 8.01608 12.5296 7.72264C12.2361 7.42919 11.7616 7.42801 11.4696 7.71999C11.1776 8.01196 11.1788 8.48654 11.4722 8.77998C11.7657 9.07343 12.2403 9.07461 12.5322 8.78263Z" fill="#B2BCC6"/>
<path d="M12.098 5.24256C11.9427 5.26288 11.7849 5.23405 11.6468 5.16011C11.5086 5.08618 11.3972 4.97085 11.3279 4.83033C11.2587 4.6898 11.2352 4.53112 11.2608 4.37657C11.2863 4.22201 11.3596 4.07934 11.4704 3.96857C11.5812 3.8578 11.7238 3.78449 11.8784 3.75894C12.033 3.73339 12.1916 3.75688 12.3322 3.8261C12.4727 3.89533 12.588 4.00682 12.6619 4.14493C12.7359 4.28303 12.7647 4.44083 12.7444 4.59616C12.723 4.76008 12.648 4.91233 12.5311 5.02923C12.4142 5.14613 12.2619 5.22113 12.098 5.24256Z" fill="#B2BCC6"/>
<path d="M18.7505 18.7487C18.6022 18.7487 18.4571 18.7926 18.3338 18.8751C18.2105 18.9575 18.1143 19.0746 18.0576 19.2116C18.0008 19.3487 17.986 19.4995 18.0149 19.645C18.0438 19.7905 18.1153 19.9241 18.2202 20.029C18.325 20.1339 18.4587 20.2053 18.6042 20.2342C18.7497 20.2632 18.9005 20.2483 19.0375 20.1916C19.1745 20.1348 19.2917 20.0387 19.3741 19.9153C19.4565 19.792 19.5005 19.647 19.5005 19.4987C19.5005 19.2997 19.4215 19.109 19.2808 18.9683C19.1402 18.8277 18.9494 18.7487 18.7505 18.7487Z" fill="#B2BCC6"/>
<path d="M18.7505 14.9987C18.6022 14.9987 18.4571 15.0426 18.3338 15.1251C18.2105 15.2075 18.1143 15.3246 18.0576 15.4616C18.0008 15.5987 17.986 15.7495 18.0149 15.895C18.0438 16.0405 18.1153 16.1741 18.2202 16.279C18.325 16.3839 18.4587 16.4553 18.6042 16.4842C18.7497 16.5132 18.9005 16.4983 19.0375 16.4416C19.1745 16.3848 19.2917 16.2887 19.3741 16.1653C19.4565 16.042 19.5005 15.897 19.5005 15.7487C19.5005 15.5497 19.4215 15.359 19.2808 15.2183C19.1402 15.0777 18.9494 14.9987 18.7505 14.9987Z" fill="#B2BCC6"/>
<path d="M18.7505 11.2487C18.6022 11.2487 18.4571 11.2926 18.3338 11.3751C18.2105 11.4575 18.1143 11.5746 18.0576 11.7116C18.0008 11.8487 17.986 11.9995 18.0149 12.145C18.0438 12.2905 18.1153 12.4241 18.2202 12.529C18.325 12.6339 18.4587 12.7053 18.6042 12.7342C18.7497 12.7632 18.9005 12.7483 19.0375 12.6916C19.1745 12.6348 19.2917 12.5387 19.3741 12.4153C19.4565 12.292 19.5005 12.147 19.5005 11.9987C19.5005 11.7997 19.4215 11.609 19.2808 11.4683C19.1402 11.3277 18.9494 11.2487 18.7505 11.2487Z" fill="#B2BCC6"/>
<path d="M15.7505 18.7487C15.6022 18.7487 15.4571 18.7926 15.3338 18.8751C15.2105 18.9575 15.1143 19.0746 15.0576 19.2116C15.0008 19.3487 14.986 19.4995 15.0149 19.645C15.0438 19.7905 15.1153 19.9241 15.2202 20.029C15.325 20.1339 15.4587 20.2053 15.6042 20.2342C15.7497 20.2632 15.9005 20.2483 16.0375 20.1916C16.1745 20.1348 16.2917 20.0387 16.3741 19.9153C16.4565 19.792 16.5005 19.647 16.5005 19.4987C16.5005 19.2997 16.4215 19.109 16.2808 18.9683C16.1402 18.8277 15.9494 18.7487 15.7505 18.7487Z" fill="#B2BCC6"/>
<path d="M15.7505 14.9987C15.6022 14.9987 15.4571 15.0426 15.3338 15.1251C15.2105 15.2075 15.1143 15.3246 15.0576 15.4616C15.0008 15.5987 14.986 15.7495 15.0149 15.895C15.0438 16.0405 15.1153 16.1741 15.2202 16.279C15.325 16.3839 15.4587 16.4553 15.6042 16.4842C15.7497 16.5132 15.9005 16.4983 16.0375 16.4416C16.1745 16.3848 16.2917 16.2887 16.3741 16.1653C16.4565 16.042 16.5005 15.897 16.5005 15.7487C16.5005 15.5497 16.4215 15.359 16.2808 15.2183C16.1402 15.0777 15.9494 14.9987 15.7505 14.9987Z" fill="#B2BCC6"/>
<path d="M15.7505 11.2487C15.6022 11.2487 15.4571 11.2926 15.3338 11.3751C15.2105 11.4575 15.1143 11.5746 15.0576 11.7116C15.0008 11.8487 14.986 11.9995 15.0149 12.145C15.0438 12.2905 15.1153 12.4241 15.2202 12.529C15.325 12.6339 15.4587 12.7053 15.6042 12.7342C15.7497 12.7632 15.9005 12.7483 16.0375 12.6916C16.1745 12.6348 16.2917 12.5387 16.3741 12.4153C16.4565 12.292 16.5005 12.147 16.5005 11.9987C16.5005 11.7997 16.4215 11.609 16.2808 11.4683C16.1402 11.3277 15.9494 11.2487 15.7505 11.2487Z" fill="#B2BCC6"/>
</svg>
