<svg width="24" height="24" viewBox="0 0 24 24" fill="none" xmlns="http://www.w3.org/2000/svg">
<path fill-rule="evenodd" clip-rule="evenodd" d="M11.8883 1.49854C8.96595 1.49854 6.7963 3.79261 7.01523 6.80294C7.21626 9.5641 9.33153 11.9985 11.8883 11.9985C14.4457 11.9985 16.5566 9.56285 16.7612 6.80394C16.9804 3.84447 14.8153 1.49854 11.8883 1.49854ZM11.8906 2.79932C9.79826 2.79932 8.24478 4.54718 8.40154 6.84076C8.54548 8.94451 10.06 10.7993 11.8906 10.7993C13.7218 10.7993 15.2332 8.94356 15.3797 6.84153C15.5367 4.5867 13.9864 2.79932 11.8906 2.79932Z" fill="#202F3D"/>
<path fill-rule="evenodd" clip-rule="evenodd" d="M2.2788 20.6123C3.13252 15.8787 7.70895 13.4985 12 13.4985C16.2911 13.4985 20.8675 15.8787 21.7217 20.6122C21.7985 21.038 21.7239 21.4939 21.4714 21.8627C21.2073 22.2483 20.772 22.4985 20.25 22.4985H3.75002C3.22803 22.4985 2.7929 22.2481 2.529 21.8625C2.27663 21.4938 2.20199 21.0381 2.2788 20.6123ZM12 14.9985C8.13484 14.9985 4.43315 17.1183 3.75499 20.8785C3.74769 20.919 3.74913 20.9528 3.75383 20.9774C3.75547 20.986 3.7574 20.993 3.75927 20.9985H20.2412C20.2431 20.993 20.245 20.986 20.2467 20.9774C20.2514 20.9528 20.2528 20.919 20.2455 20.8786C19.5669 17.1183 15.8652 14.9985 12 14.9985Z" fill="#202F3D"/>
</svg>
