<svg width="20" height="22" viewBox="0 0 20 22" fill="none" xmlns="http://www.w3.org/2000/svg">
<path d="M9.99991 14.9454C7.59255 14.9454 5.63398 12.9827 5.63398 10.5703C5.63398 8.15792 7.59255 6.19526 9.99991 6.19526C12.4071 6.19526 14.3657 8.15792 14.3657 10.5703C14.3657 12.9827 12.4071 14.9454 9.99991 14.9454ZM9.99991 7.50776C8.31458 7.50776 6.94374 8.88162 6.94374 10.5703C6.94374 12.259 8.31458 13.6329 9.99991 13.6329C11.6851 13.6329 13.0559 12.259 13.0559 10.5703C13.0559 8.88162 11.6851 7.50776 9.99991 7.50776Z" fill="#202F3D"/>
<path d="M11.452 21.0703H8.54769C7.84916 21.0703 7.23185 20.5733 7.07996 19.8882L6.71239 18.2502C6.11331 17.9956 5.5422 17.6631 5.00612 17.2571L3.41432 17.761C2.73146 17.9736 1.98928 17.6832 1.64697 17.0706L0.199386 14.5621C-0.147401 13.9408 -0.0303666 13.1761 0.479661 12.6948L1.71332 11.5582C1.67591 11.2248 1.65752 10.8941 1.65752 10.5703C1.65752 10.2465 1.67591 9.91582 1.71252 9.58241L0.485737 8.45112C-0.0303665 7.96454 -0.1482 7.19982 0.194909 6.58651L1.65145 4.06213C1.98928 3.4565 2.73322 3.16875 3.41176 3.37784L5.00612 3.88268C5.5422 3.47669 6.11331 3.14424 6.71239 2.8895L7.08076 1.24983C7.23185 0.567307 7.84916 0.0703125 8.54769 0.0703125H11.452C12.1505 0.0703125 12.7678 0.567307 12.9197 1.2524L13.2873 2.89046C13.8864 3.14504 14.4575 3.47749 14.9935 3.88348L16.5853 3.3796C17.27 3.16875 18.0104 3.45747 18.3527 4.06998L19.8004 6.5785C20.1471 7.19982 20.03 7.96454 19.52 8.44583L18.2863 9.58241C18.323 9.91582 18.3413 10.2475 18.3413 10.5703C18.3413 10.8932 18.323 11.2248 18.2863 11.5582L19.5139 12.6887C19.5157 12.6905 19.5174 12.6922 19.52 12.694C20.03 13.1751 20.1479 13.94 19.8048 14.5533L18.3482 17.0777C18.0104 17.6832 17.2682 17.9728 16.5871 17.761L14.9926 17.2562C14.4565 17.6622 13.8854 17.9946 13.2865 18.2494L12.9179 19.889C12.7678 20.5733 12.1505 21.0703 11.452 21.0703ZM5.13978 15.8719C5.28991 15.8719 5.43748 15.9235 5.55627 16.0215C6.15616 16.516 6.81008 16.8975 7.50253 17.153C7.71118 17.2299 7.86579 17.4076 7.91471 17.6245L8.35919 19.6021C8.37917 19.6931 8.45863 19.7578 8.54865 19.7578H11.4528C11.5428 19.7578 11.6222 19.6931 11.6414 19.6038L12.0867 17.6245C12.1356 17.4076 12.2902 17.2299 12.4989 17.153C13.1904 16.8975 13.8453 16.516 14.4451 16.0215C14.6164 15.8798 14.8468 15.8343 15.0591 15.9017L16.9809 16.5099C17.0725 16.5387 17.1704 16.5046 17.2122 16.4293L18.6688 13.9049C18.7124 13.827 18.6966 13.7203 18.6269 13.6521L17.1529 12.2941C16.993 12.147 16.9163 11.9291 16.9486 11.7139C17.0062 11.3264 17.0351 10.9414 17.0351 10.5695C17.0351 10.1975 17.0062 9.81248 16.9486 9.42492C16.9163 9.20975 16.993 8.99265 17.1529 8.84477L18.6302 7.48325C18.6966 7.42124 18.7124 7.31261 18.6643 7.2261L17.2166 4.71741C17.1696 4.63426 17.0699 4.6011 16.9791 4.62994L15.0599 5.23716C14.8485 5.30461 14.6181 5.25911 14.4461 5.11732C13.8462 4.62289 13.1921 4.24141 12.4997 3.98586C12.291 3.90896 12.1364 3.73128 12.0877 3.51434L11.6432 1.53678C11.6213 1.44754 11.5418 1.38281 11.452 1.38281H8.54769C8.45784 1.38281 8.37837 1.44754 8.35919 1.53678L7.91375 3.51611C7.86499 3.73304 7.71038 3.90976 7.50173 3.98762C6.81008 4.24317 6.1552 4.62465 5.55627 5.11908C5.38424 5.26087 5.15193 5.30541 4.94248 5.23892L3.02053 4.63074C2.93067 4.60286 2.83106 4.63602 2.78917 4.71133L1.33264 7.23475C1.28899 7.31358 1.30482 7.42204 1.37725 7.49029L2.84945 8.84573C3.00917 8.99265 3.08608 9.21055 3.05378 9.42588C2.99606 9.81345 2.96728 10.1984 2.96728 10.5703C2.96728 10.9422 2.99606 11.3272 3.05378 11.7147C3.08608 11.9301 3.00917 12.147 2.84945 12.2949L1.37197 13.6564C1.30562 13.7186 1.28995 13.827 1.33791 13.9137L2.78566 16.4222C2.83186 16.5054 2.93147 16.5378 3.02308 16.5099L4.94248 15.9025C5.00708 15.8815 5.07343 15.8719 5.13978 15.8719Z" fill="#202F3D"/>
</svg>
