<svg width="20" height="20" viewBox="0 0 20 20" fill="none" xmlns="http://www.w3.org/2000/svg">
<path fill-rule="evenodd" clip-rule="evenodd" d="M4.33603 3.75124C4.68054 3.72971 4.97727 3.99153 4.9988 4.33603L5.78005 16.836C5.7802 16.8383 5.78033 16.8406 5.78045 16.843C5.80206 17.2636 6.08132 17.5 6.40627 17.5H13.5938C13.9155 17.5 14.1935 17.2689 14.2199 16.8369L15.0012 4.33603C15.0228 3.99153 15.3195 3.72971 15.664 3.75124C16.0085 3.77277 16.2703 4.0695 16.2488 4.41401L15.4676 16.9131C15.4676 16.9132 15.4676 16.9132 15.4676 16.9133C15.4057 17.9258 14.6525 18.75 13.5938 18.75H6.40627C5.3575 18.75 4.58659 17.933 4.53229 16.9108L3.75124 4.41401C3.72971 4.0695 3.99153 3.77277 4.33603 3.75124Z" fill="#79828B"/>
<path fill-rule="evenodd" clip-rule="evenodd" d="M2.5 4.375C2.5 4.02982 2.77982 3.75 3.125 3.75H16.875C17.2202 3.75 17.5 4.02982 17.5 4.375C17.5 4.72018 17.2202 5 16.875 5H3.125C2.77982 5 2.5 4.72018 2.5 4.375Z" fill="#79828B"/>
<path fill-rule="evenodd" clip-rule="evenodd" d="M8.43567 2.5C8.39484 2.49988 8.35439 2.50784 8.31664 2.52341C8.2789 2.53898 8.2446 2.56186 8.21573 2.59073C8.18686 2.6196 8.16398 2.6539 8.14841 2.69164C8.13284 2.72939 8.12488 2.76984 8.125 2.81067L8.125 2.8125V4.375C8.125 4.72018 7.84518 5 7.5 5C7.15483 5 6.875 4.72018 6.875 4.375V2.8133C6.87454 2.60805 6.91459 2.40473 6.99286 2.21498C7.07126 2.02492 7.18646 1.85223 7.33184 1.70684C7.47723 1.56146 7.64992 1.44626 7.83998 1.36786C8.02973 1.28959 8.23305 1.24954 8.4383 1.25H11.5617C11.767 1.24954 11.9703 1.28959 12.16 1.36786C12.3501 1.44626 12.5228 1.56146 12.6682 1.70684C12.8135 1.85223 12.9288 2.02492 13.0072 2.21498C13.0854 2.40477 13.1255 2.60814 13.125 2.81343V4.375C13.125 4.72018 12.8452 5 12.5 5C12.1548 5 11.875 4.72018 11.875 4.375V2.8125L11.875 2.81067C11.8751 2.76984 11.8672 2.72939 11.8516 2.69164C11.836 2.65389 11.8132 2.6196 11.7843 2.59073C11.7554 2.56186 11.7211 2.53898 11.6834 2.52341C11.6456 2.50784 11.6052 2.49988 11.5643 2.5L11.5625 2.5H8.4375L8.43567 2.5Z" fill="#79828B"/>
<path fill-rule="evenodd" clip-rule="evenodd" d="M10 6.25C10.3452 6.25 10.625 6.52982 10.625 6.875V15.625C10.625 15.9702 10.3452 16.25 10 16.25C9.65482 16.25 9.375 15.9702 9.375 15.625V6.875C9.375 6.52982 9.65482 6.25 10 6.25Z" fill="#79828B"/>
<path fill-rule="evenodd" clip-rule="evenodd" d="M7.1652 6.25041C7.51016 6.23809 7.79979 6.50774 7.81211 6.8527L8.12461 15.6027C8.13693 15.9477 7.86727 16.2373 7.52232 16.2496C7.17736 16.2619 6.88773 15.9923 6.87541 15.6473L6.56291 6.89731C6.55059 6.55236 6.82024 6.26273 7.1652 6.25041Z" fill="#79828B"/>
<path fill-rule="evenodd" clip-rule="evenodd" d="M12.8348 6.25041C13.1798 6.26273 13.4494 6.55236 13.4371 6.89731L13.1246 15.6473C13.1123 15.9923 12.8227 16.2619 12.4777 16.2496C12.1327 16.2373 11.8631 15.9477 11.8754 15.6027L12.1879 6.8527C12.2002 6.50774 12.4899 6.23809 12.8348 6.25041Z" fill="#79828B"/>
</svg>
